<?xml version="1.0" encoding="UTF-8" standalone="no"?>
<!-- Created with Inkscape (http://www.inkscape.org/) -->

<svg
   width="32.345043mm"
   height="33.923576mm"
   viewBox="0 0 32.345043 33.923576"
   version="1.1"
   id="svg1"
   xmlns="http://www.w3.org/2000/svg"
   xmlns:svg="http://www.w3.org/2000/svg">
  <defs
     id="defs1" />
  <g
     id="layer1"
     transform="translate(-105.97496,-145.65272)">
    <rect
       style="fill:#000000;fill-opacity:1;stroke:#000000;stroke-width:0.00508018;stroke-linecap:round;stroke-linejoin:round;stroke-miterlimit:1.3;stroke-dasharray:0.0406414, 0.0101603, 0.00508018, 0.0101603"
       id="rect2"
       width="31.994919"
       height="31.994921"
       x="106.32254"
       y="145.65526"
       ry="6.2462001" />
    <path
       style="fill:#ffffff;fill-opacity:1;stroke:#000000;stroke-width:0.0211753;stroke-linecap:round;stroke-linejoin:round;stroke-miterlimit:1.3;stroke-dasharray:0.169403, 0.0423507, 0.0211753, 0.0423507"
       id="path5"
       d="m 133.20011,164.68564 a 11.785468,10.747131 0 0 1 -15.25887,6.05353 11.785468,10.747131 0 0 1 -6.68742,-13.89498 11.785468,10.747131 0 0 1 15.21587,-6.14288 11.785468,10.747131 0 0 1 6.78526,13.85548" />
    <path
       style="fill:#000000;fill-opacity:1;stroke:#000000;stroke-width:0.0186867;stroke-linecap:round;stroke-linejoin:round;stroke-miterlimit:1.3;stroke-dasharray:0.149494, 0.0373735, 0.0186867, 0.0373735"
       id="path6"
       d="m 131.83358,164.22475 a 10.34093,9.5386143 0 0 1 -13.3886,5.37281 10.34093,9.5386143 0 0 1 -5.86774,-12.33249 10.34093,9.5386143 0 0 1 13.35087,-5.45211 10.34093,9.5386143 0 0 1 5.95359,12.29743" />
    <path
       style="fill:#ffffff;fill-opacity:1;stroke:#000000;stroke-width:0.00256343;stroke-linecap:round;stroke-linejoin:round;stroke-miterlimit:1.3;stroke-dasharray:0.0205075, 0.00512686, 0.00256343, 0.00512686"
       id="path7"
       d="m 123.70718,161.15081 a 1.4267178,1.3010193 0 0 1 -1.84719,0.73283 1.4267178,1.3010193 0 0 1 -0.80957,-1.68209 1.4267178,1.3010193 0 0 1 1.842,-0.74364 1.4267178,1.3010193 0 0 1 0.8214,1.67731" />
    <path
       style="fill:#96f523;fill-opacity:1;stroke:#000000;stroke-width:2.99263;stroke-linecap:square;stroke-linejoin:bevel;stroke-miterlimit:1.3;stroke-dasharray:none;stroke-dashoffset:0;stroke-opacity:0"
       d="m 133.20451,150.36684 2.3958,5.07083 -5.22064,1.25692 2.74209,3.56293 -10.11068,0.19333 4.90141,-2.31188 -1.83735,-2.97349 z"
       id="path10" />
    <path
       style="fill:#96f523;fill-opacity:1;stroke:#000000;stroke-width:1.61;stroke-linecap:square;stroke-linejoin:bevel;stroke-miterlimit:1.3;stroke-dasharray:none;stroke-dashoffset:0;stroke-opacity:0"
       d="m 122.48598,152.36414 -2.90325,0.82137 1.33614,2.56134 -2.41424,0.14781 3.49635,4.16816 -0.7955,-2.80488 1.85535,-0.30627 z"
       id="path11" />
    <text
       xml:space="preserve"
       style="font-size:7.7611px;line-height:0;font-family:Jaro;-inkscape-font-specification:Jaro;fill:#96f523;fill-opacity:1;stroke:#000000;stroke-width:1.61;stroke-linecap:square;stroke-linejoin:bevel;stroke-miterlimit:1.3;stroke-dasharray:none;stroke-dashoffset:0;stroke-opacity:0"
       x="106.77995"
       y="178.7713"
       id="text11"><tspan
         id="tspan11"
         style="stroke-width:1.61"
         x="106.77995"
         y="178.7713">        404       </tspan></text>
  </g>
</svg>
