<?xml version="1.0" encoding="UTF-8" standalone="no"?>
<!-- Created with Inkscape (http://www.inkscape.org/) -->

<svg
   width="31.999996mm"
   height="32.000004mm"
   viewBox="0 0 31.999996 32.000004"
   version="1.1"
   id="svg1"
   xmlns="http://www.w3.org/2000/svg"
   xmlns:svg="http://www.w3.org/2000/svg">
  <defs
     id="defs1" />
  <g
     id="layer1"
     transform="translate(-63.725225,-102.81865)">
    <rect
       style="fill:#000000;fill-opacity:1;stroke:#000000;stroke-width:0.00508018;stroke-linecap:round;stroke-linejoin:round;stroke-miterlimit:1.3;stroke-dasharray:0.0406414, 0.0101603, 0.00508018, 0.0101603"
       id="rect1"
       width="31.994919"
       height="31.994921"
       x="63.727764"
       y="102.82118"
       ry="6.2462001" />
    <path
       style="fill:#ffffff;fill-opacity:1;stroke:#000000;stroke-width:0.0211753;stroke-linecap:round;stroke-linejoin:round;stroke-miterlimit:1.3;stroke-dasharray:0.169403, 0.0423507, 0.0211753, 0.0423507"
       id="path2"
       d="m 90.605332,121.85156 a 11.785468,10.747131 0 0 1 -15.25887,6.05353 11.785468,10.747131 0 0 1 -6.687418,-13.89498 11.785468,10.747131 0 0 1 15.21587,-6.14287 11.785468,10.747131 0 0 1 6.785256,13.85548" />
    <path
       style="fill:#000000;fill-opacity:1;stroke:#000000;stroke-width:0.0186867;stroke-linecap:round;stroke-linejoin:round;stroke-miterlimit:1.3;stroke-dasharray:0.149494, 0.0373735, 0.0186867, 0.0373735"
       id="path3"
       d="m 89.2388,121.39066 a 10.34093,9.5386143 0 0 1 -13.388599,5.37281 10.34093,9.5386143 0 0 1 -5.867745,-12.33249 10.34093,9.5386143 0 0 1 13.35087,-5.4521 10.34093,9.5386143 0 0 1 5.953591,12.29743" />
    <path
       style="fill:#ffffff;fill-opacity:1;stroke:#000000;stroke-width:0.00256343;stroke-linecap:round;stroke-linejoin:round;stroke-miterlimit:1.3;stroke-dasharray:0.0205075, 0.00512686, 0.00256343, 0.00512686"
       id="path4"
       d="m 81.112404,118.31673 a 1.4267178,1.3010193 0 0 1 -1.847198,0.73283 1.4267178,1.3010193 0 0 1 -0.809561,-1.68209 1.4267178,1.3010193 0 0 1 1.841993,-0.74365 1.4267178,1.3010193 0 0 1 0.821405,1.67731" />
  </g>
</svg>
